<svg xmlns="http://www.w3.org/2000/svg" width="42" height="30" fill="none"><g clip-path="url(#season2_svg__a)"><path fill="url(#season2_svg__b)" d="M31.76 3.937H19.812v1.666a2.274 2.274 0 0 0 1.748 2.178c1.242.3 2.615.065 3.656-.707l2.555 2.91c-.629.626-1.413 1.534-1.437 2.916-.01.788.351 1.489.732 2.229.364.682.694 1.39.727 2.176.034.969-.133 2.11-.926 3.084-.64.754-1.593 1.17-2.834 1.238-.439.024-.801.053-1.139.089-1.15.121-2.038.133-2.921.993 0 0-.064.058-.077.073-.088.118-.084.206-.084.355v3.078h11.95a.834.834 0 0 0 .825-.828V4.764a.833.833 0 0 0-.825-.827ZM19.812 20.782c.107-.068.217-.132.332-.185.786-.355 1.564-.432 2.28-.504.096-.009.192-.02.285-.028.37-.041.76-.072 1.23-.099 1.115-.06 1.502-.479 1.636-.637.396-.491.575-1.134.548-1.963-.02-.42-.228-.89-.535-1.465l-.013-.021c-.435-.847-.929-1.805-.915-3.004v-.011c.023-1.204.45-2.16.915-2.86l-.746-.85a6.196 6.196 0 0 1-2.205.407c-.93 0-1.84-.207-2.653-.599l-.16-.09v11.906l.001.003Z"></path><path fill="url(#season2_svg__c)" d="M.043 5.471v19.19c0 1.311.952 2.432 2.254 2.655L17.994 30V0L2.274 2.82A2.7 2.7 0 0 0 .044 5.471ZM10.604 20.49l-3.563-5.594v5.594H4.639V9.285h2.42v5.592l3.302-5.592h3.152l-1.085 1.633-2.648 3.979h.094l1.735 2.396 2.316 3.196h-3.32Z"></path><path fill="url(#season2_svg__d)" d="m35.204 6.6 4.552-3.705v-.73l-.347-.324h-1.735l-.327.324v.831h-2.185V1.518L36.692 0h3.737l1.53 1.518v2.045l-3.98 3.098v.102h4.02v1.74h-6.797V6.602h.002Z"></path><path fill="#EFBF48" d="M25.347 9.796a51.3 51.3 0 0 0-5.577 3.682V8.875l.16.091a6.121 6.121 0 0 0 2.651.6c.762 0 1.512-.142 2.208-.407l.558.637ZM32.544 4.764v1.64a51.044 51.044 0 0 0-5.7 2.571l-1.668-1.903c-1.043.772-2.416 1.007-3.659.707-1.011-.244-1.74-1.142-1.747-2.176V3.937h11.948c.451 0 .826.376.826.827ZM2.232 2.82A2.7 2.7 0 0 0 0 5.472v11.83a50.824 50.824 0 0 1 4.595-6.251V9.285h1.588A51.392 51.392 0 0 1 17.94.002L2.232 2.82ZM41.916 1.52V3.18a51.173 51.173 0 0 0-5.794 5.323h-.961V6.6l4.55-3.705v-.73l-.346-.324h-1.736l-.325.325v.83h-2.185V1.52L36.65 0h3.737l1.53 1.52Z"></path></g><defs><linearGradient id="season2_svg__b" x1="26.42" x2="26.035" y1="-10.633" y2="34.373" gradientUnits="userSpaceOnUse"><stop stop-color="#332601"></stop><stop offset="0.53" stop-color="#CC9B12"></stop><stop offset="1" stop-color="#EFBF48"></stop></linearGradient><linearGradient id="season2_svg__c" x1="9.265" x2="8.88" y1="-10.778" y2="34.226" gradientUnits="userSpaceOnUse"><stop stop-color="#332601"></stop><stop offset="0.53" stop-color="#CC9B12"></stop><stop offset="1" stop-color="#EFBF48"></stop></linearGradient><linearGradient id="season2_svg__d" x1="38.717" x2="38.331" y1="-10.527" y2="34.479" gradientUnits="userSpaceOnUse"><stop stop-color="#332601"></stop><stop offset="0.53" stop-color="#CC9B12"></stop><stop offset="1" stop-color="#EFBF48"></stop></linearGradient><clipPath id="season2_svg__a"><path fill="#fff" d="M0 0h42v30H0z"></path></clipPath></defs></svg>